<svg width="24" height="25" viewBox="0 0 24 25" fill="none" xmlns="http://www.w3.org/2000/svg">
    <path d="M12 8.44441C13.1 8.44441 14 7.53013 14 6.41267C14 5.29521 13.1 4.38092 12 4.38092C10.9 4.38092 10 5.29521 10 6.41267C10 7.53013 10.9 8.44441 12 8.44441ZM12 10.4762C10.9 10.4762 10 11.3904 10 12.5079C10 13.6254 10.9 14.5397 12 14.5397C13.1 14.5397 14 13.6254 14 12.5079C14 11.3904 13.1 10.4762 12 10.4762ZM12 16.5714C10.9 16.5714 10 17.4857 10 18.6031C10 19.7206 10.9 20.6349 12 20.6349C13.1 20.6349 14 19.7206 14 18.6031C14 17.4857 13.1 16.5714 12 16.5714Z" fill="#1B5489"/>
</svg>
