<svg width="283" height="258" viewBox="0 0 283 258" fill="none" xmlns="http://www.w3.org/2000/svg">
<g clip-path="url(#clip0)">
<path d="M282.75 141.06C281.75 144.22 279.42 145.83 276.44 147.06C263.11 152.57 249.41 156.01 234.85 155.35C225.62 154.93 216.96 152.24 208.45 148.94C201.68 146.32 195.03 143.34 188.15 141.07C173.86 136.36 160.1 138.74 146.53 144.48C138.77 147.76 130.81 150.79 122.68 152.97C105.76 157.51 89.1601 155.78 73.0101 149.04C66.3101 146.24 59.6101 143.39 52.7301 141.11C38.7701 136.49 25.1501 138.36 11.8901 144.17C10.4601 144.8 9.0301 145.46 7.5501 145.93C4.4501 146.92 1.5201 145.65 0.440104 142.97C-0.679896 140.19 0.340104 137.15 3.3001 135.8C7.3901 133.93 11.5801 132.23 15.8301 130.77C32.4601 125.07 48.7501 126.55 64.8101 133.21C71.6001 136.03 78.4201 138.82 85.3901 141.12C99.6601 145.83 113.9 144.65 127.87 139.69C135.66 136.92 143.22 133.52 151.02 130.79C168.21 124.78 185.02 126.61 201.55 133.64C207.89 136.34 214.29 138.94 220.83 141.09C235.2 145.81 249.49 144.58 263.59 139.68C266.54 138.66 269.45 137.52 272.35 136.35C278.1 134.03 279.98 134.66 282.74 139.96C282.75 140.32 282.75 140.69 282.75 141.06Z" fill="#fff"/>
<path d="M237.25 257.69C228.49 258.02 218.47 255.08 208.64 251.26C201.87 248.63 195.23 245.64 188.35 243.36C173.98 238.61 160.03 240.74 146.5 246.85C135.98 251.6 125.18 255.39 113.69 257.01C99.5402 259.01 86.0502 256.59 72.9402 251.23C66.2202 248.48 59.5302 245.62 52.6402 243.34C38.6702 238.72 25.0602 240.67 11.8002 246.45C10.3702 247.07 8.94022 247.74 7.46022 248.2C4.48022 249.13 1.62022 247.91 0.510224 245.37C-0.679776 242.65 0.270224 239.5 3.17022 238.11C6.89022 236.33 10.7602 234.82 14.6402 233.42C31.6702 227.25 48.3902 228.61 64.9302 235.48C71.6302 238.27 78.3602 241.07 85.2402 243.33C99.6002 248.04 113.93 246.92 127.99 241.88C135.77 239.09 143.35 235.72 151.15 233C168.35 227 185.16 228.88 201.69 235.93C208.03 238.63 214.43 241.23 220.97 243.37C235.25 248.05 249.46 246.82 263.47 241.97C267.03 240.74 270.51 239.28 274.04 237.97C277.75 236.59 280.34 237.49 281.68 240.55C283.13 243.86 281.99 246.86 278.39 248.43C265.89 253.88 252.97 257.6 237.25 257.69Z" fill="#fff"/>
<path d="M238.09 206.37C228.46 206.69 218.37 203.71 208.43 199.91C200.11 196.73 191.89 193.12 183.33 190.82C170.73 187.44 158.52 190.21 146.82 195.42C136.12 200.18 125.2 204.2 113.49 205.69C102.76 207.06 92.1501 206.6 81.8901 203.01C73.9101 200.22 66.0401 197.12 58.2201 193.91C42.3601 187.4 26.8101 188.42 11.3901 195.31C10.2201 195.83 9.05012 196.39 7.84012 196.81C4.61012 197.92 1.57012 196.7 0.460124 193.92C-0.689876 191.04 0.400124 187.91 3.56012 186.61C9.07012 184.34 14.6401 182.12 20.3501 180.44C36.0001 175.86 51.0401 178.52 65.8501 184.5C74.2701 187.9 82.7701 191.34 91.5401 193.53C106.3 197.21 120.55 193.85 134.36 188.29C143.05 184.79 151.57 180.89 160.89 179.17C172.41 177.04 183.62 178.08 194.55 182.05C203.27 185.22 211.78 188.99 220.57 191.94C237.3 197.55 253.6 194.84 269.58 188.49C271.46 187.74 273.32 186.93 275.24 186.34C277.97 185.51 280.31 186.64 281.63 189.22C282.88 191.67 282.35 194.56 280.06 196.08C278.47 197.13 276.64 197.85 274.86 198.58C263.45 203.27 251.67 206.31 238.09 206.37Z" fill="#fff"/>
<path d="M54.2701 20.37C54.2701 21.35 54.2701 22.33 54.2701 23.31C54.2701 42.74 54.2801 62.17 54.2501 81.6C54.2501 82.97 54.1301 84.36 53.8201 85.69C53.2101 88.23 51.4701 89.54 48.8601 89.64C46.1601 89.74 44.1701 88.42 43.5001 85.87C43.1501 84.56 43.0301 83.15 43.0201 81.79C42.9901 62.27 43.0001 42.75 43.0001 23.23C43.0001 22.26 43.0001 21.29 43.0001 19.65C41.7501 20.78 41.0101 21.4 40.3301 22.08C34.1401 28.26 28.0201 34.51 21.7201 40.57C20.4301 41.81 18.5001 42.87 16.7601 43.07C12.4201 43.56 9.65011 39.18 11.6601 35.28C12.2301 34.16 13.1601 33.19 14.0601 32.28C23.7401 22.56 33.4501 12.86 43.1601 3.17004C47.3801 -1.03996 49.9101 -1.02996 54.1501 3.20004C63.9301 12.96 73.6901 22.73 83.4601 32.49C85.1901 34.22 86.7001 36.07 86.1401 38.76C85.1901 43.27 79.9001 44.87 76.4701 41.55C71.3701 36.62 66.4001 31.57 61.4201 26.52C59.3001 24.37 57.2901 22.1 55.2301 19.88C54.9001 20.05 54.5901 20.21 54.2701 20.37Z" fill="#fff"/>
<path d="M239.5 19.52C239.5 21.49 239.5 22.58 239.5 23.67C239.5 43.19 239.5 62.71 239.5 82.23C239.5 87.4 237.5 90.15 233.82 90.07C230.26 89.99 228.29 87.28 228.28 82.3C228.26 62.78 228.27 43.26 228.27 23.74C228.27 22.65 228.27 21.55 228.27 19.66C227.07 20.73 226.35 21.32 225.7 21.97C219.44 28.21 213.26 34.53 206.9 40.67C205.67 41.86 203.85 42.66 202.16 43.09C200.18 43.59 198.37 42.81 197.23 40.9C196.05 38.91 195.92 36.88 197.12 34.92C197.73 33.91 198.58 33.03 199.42 32.19C209.05 22.54 218.69 12.91 228.33 3.28003C232.71 -1.08997 235.11 -1.07997 239.51 3.31003C249.28 13.07 259.05 22.84 268.82 32.6C270.57 34.35 272 36.24 271.4 38.92C270.4 43.35 265.03 44.79 261.62 41.44C255.11 35.06 248.71 28.57 242.26 22.13C241.55 21.44 240.83 20.78 239.5 19.52Z" fill="#fff"/>
<path d="M135.1 20.0901C134.39 20.7501 133.66 21.3801 132.97 22.0701C126.65 28.3901 120.38 34.7501 114.01 41.0101C110.49 44.4701 105.77 43.9701 104.14 40.0401C102.97 37.2101 104.05 34.8901 106.11 32.8401C113.62 25.3701 121.1 17.8701 128.59 10.3801C131.2 7.77008 133.77 5.14008 136.41 2.57008C139.83 -0.759922 142.67 -0.829922 146.01 2.49008C156.27 12.6801 166.49 22.9101 176.69 33.1701C179.37 35.8701 179.53 39.6101 177.24 41.7701C175.41 43.4901 171.21 43.9501 168.54 41.1501C162.36 34.7001 155.95 28.4701 149.63 22.1601C148.93 21.4601 148.19 20.7901 146.73 20.2601C146.73 21.2801 146.73 22.3001 146.73 23.3301C146.73 43.0401 146.73 62.7601 146.73 82.4701C146.73 87.5501 144.84 90.1401 141.21 90.0801C137.59 90.0201 135.77 87.4401 135.77 82.3301C135.76 62.8001 135.77 43.2701 135.77 23.7401C135.77 22.6401 135.77 21.5501 135.77 20.4501C135.55 20.3201 135.33 20.2001 135.1 20.0901Z" fill="#fff"/>
</g>
<defs>
<clipPath id="clip0">
<rect width="282.75" height="257.71" fill="white"/>
</clipPath>
</defs>
</svg>
