<svg width="286" height="286" viewBox="0 0 286 286" fill="none" xmlns="http://www.w3.org/2000/svg">
    <path d="M209.817 125.063L150.57 30.7183C149.71 29.5118 148.575 28.5282 147.258 27.8496C145.941 27.171 144.481 26.8169 143 26.8169C141.519 26.8169 140.059 27.171 138.742 27.8496C137.425 28.5282 136.29 29.5118 135.43 30.7183L75.9151 125.509C67.6469 138.846 63.0412 154.128 62.5625 169.813C62.5625 191.146 71.0371 211.605 86.1221 226.69C101.207 241.775 121.667 250.25 143 250.25C164.333 250.25 184.793 241.775 199.878 226.69C214.963 211.605 223.438 191.146 223.438 169.813C222.924 153.956 218.225 138.517 209.817 125.063ZM143 232.375C126.414 232.354 110.513 225.756 98.7851 214.027C87.057 202.299 80.4588 186.399 80.4375 169.813C80.9126 157.314 84.6668 145.161 91.3234 134.572L99.6799 121.255L189.716 211.292C183.869 217.917 176.68 223.223 168.626 226.86C160.572 230.496 151.837 232.379 143 232.384V232.375Z" fill="#fff"/>
</svg>
