<svg width="14" height="20" viewBox="0 0 14 20" fill="none" xmlns="http://www.w3.org/2000/svg">
    <path d="M7 0C11.667 6.09 14 10.423 14 13C14 13.9193 13.8189 14.8295 13.4672 15.6788C13.1154 16.5281 12.5998 17.2997 11.9497 17.9497C11.2997 18.5998 10.5281 19.1154 9.67878 19.4672C8.8295 19.8189 7.91925 20 7 20C6.08075 20 5.17049 19.8189 4.32122 19.4672C3.47194 19.1154 2.70026 18.5998 2.05025 17.9497C1.40024 17.2997 0.884626 16.5281 0.532843 15.6788C0.18106 14.8295 -1.36979e-08 13.9193 0 13C0 10.423 2.333 6.09 7 0Z" fill="#1B5489"/>
</svg>
