<svg width="283" height="252" viewBox="0 0 283 252" fill="none" xmlns="http://www.w3.org/2000/svg">
<g clip-path="url(#clip0)">
<path d="M198.56 101.44C198.5 131.17 177.27 155.17 148.89 159.07C112.86 164.02 81.14 134.11 84.23 98.07C85.04 88.65 87.82 79.78 92.8 71.77C106.9 49.09 121.16 26.5 135.39 3.90005C138.7 -1.35995 143.96 -1.26995 147.26 4.00005C161.12 26.08 174.99 48.15 188.84 70.24C195.1 80.23 198.3 91.14 198.56 101.44ZM109.71 66.74C105.98 73.83 101.99 80.09 99.3499 86.87C97.3599 91.99 96.08 97.83 96.3 103.27C97.06 122.54 106.56 136.64 124.4 143.92C142.05 151.13 158.34 147.54 172.47 134.69C175.3 132.12 175.23 132.04 172.6 129.42C152.61 109.43 132.62 89.43 112.62 69.44C111.94 68.76 111.19 68.11 109.71 66.74Z" fill="#1B5489"/>
<path d="M239.09 250.89C228.37 251.25 218.35 248.3 208.53 244.46C201.77 241.81 195.11 238.86 188.22 236.59C173.93 231.87 160.07 234.02 146.62 240.07C136.01 244.84 125.13 248.68 113.54 250.3C99.48 252.27 86.07 249.84 73.05 244.55C66.32 241.82 59.64 238.91 52.76 236.63C38.79 232 25.18 233.88 11.91 239.67C10.31 240.37 8.7 241.06 7.03 241.55C4.37 242.33 1.62 241.07 0.539995 238.75C-0.580005 236.33 0.159995 233.53 2.36 231.87C2.65 231.65 2.95 231.42 3.28 231.26C21.11 222.68 39.45 219.62 58.59 226.47C64.13 228.45 69.66 230.5 75.01 232.93C94.65 241.86 114.17 241.12 133.9 233.14C142.39 229.7 151.04 226.43 159.88 224.1C171.48 221.04 183.1 222.53 194.35 226.5C199.81 228.43 205.25 230.47 210.51 232.88C230.33 241.93 250.09 241.26 269.88 232.91C271.32 232.3 272.77 231.7 274.23 231.17C277.9 229.84 280.5 230.81 281.79 233.94C283.12 237.17 282.04 240.19 278.52 241.59C272.89 243.83 267.24 246.2 261.39 247.65C254.11 249.45 246.61 250.37 239.21 251.66C239.17 251.41 239.13 251.15 239.09 250.89Z" fill="#1B5489"/>
<path d="M238.15 199.62C228.39 199.93 218.39 196.95 208.53 193.2C200.21 190.03 191.99 186.39 183.43 184.09C170.83 180.7 158.71 183.68 146.87 188.57C139.16 191.76 131.33 194.85 123.3 197.04C106.12 201.72 89.27 200 72.81 193.19C64.67 189.83 56.47 186.39 47.99 184.1C35.4 180.7 23.19 183.43 11.44 188.54C10.26 189.05 9.10004 189.63 7.89004 190.05C4.67004 191.17 1.59004 189.98 0.460044 187.24C-0.719956 184.38 0.330044 181.16 3.49004 179.91C9.71004 177.44 15.97 174.94 22.42 173.21C37.37 169.2 51.71 172.12 65.79 177.74C74.22 181.11 82.71 184.6 91.48 186.79C106.24 190.48 120.44 186.98 134.34 181.64C142.9 178.35 151.49 174.92 160.35 172.7C174.46 169.17 188.04 172.35 201.27 177.7C208.76 180.73 216.27 183.84 224 186.1C237.45 190.04 250.78 188.35 263.83 183.79C267.21 182.61 270.52 181.22 273.88 179.97C277.6 178.58 280.56 179.68 281.9 182.9C283.16 185.92 281.81 188.93 278.28 190.46C265.78 195.87 252.87 199.62 238.15 199.62Z" fill="#1B5489"/>
</g>
<defs>
<clipPath id="clip0">
<rect width="282.37" height="251.67" fill="white"/>
</clipPath>
</defs>
</svg>
